<?xml version="1.0" encoding="utf-8" standalone="no"?>
<!DOCTYPE svg PUBLIC "-//W3C//DTD SVG 1.1//EN"
  "http://www.w3.org/Graphics/SVG/1.1/DTD/svg11.dtd">
<!-- Created with matplotlib (https://matplotlib.org/) -->
<svg height="288pt" version="1.1" viewBox="0 0 432 288" width="432pt" xmlns="http://www.w3.org/2000/svg" xmlns:xlink="http://www.w3.org/1999/xlink">
 <defs>
  <style type="text/css">
*{stroke-linecap:butt;stroke-linejoin:round;}
  </style>
 </defs>
 <g id="figure_1">
  <g id="patch_1">
   <path d="M 0 288 
L 432 288 
L 432 0 
L 0 0 
z
" style="fill:#ffffff;"/>
  </g>
  <g id="axes_1">
   <g id="LineCollection_1">
    <path clip-path="url(#p4f593394b2)" d="M 402.86226 144 
L 384.357076 89.967068 
" style="fill:none;stroke:#88ade8;"/>
    <path clip-path="url(#p4f593394b2)" d="M 402.86226 144 
L 332.506713 46.636022 
" style="fill:none;stroke:#88ade8;"/>
    <path clip-path="url(#p4f593394b2)" d="M 402.86226 144 
L 257.580773 22.589109 
" style="fill:none;stroke:#88ade8;"/>
    <path clip-path="url(#p4f593394b2)" d="M 402.86226 144 
L 174.419233 22.589109 
" style="fill:none;stroke:#88ade8;"/>
    <path clip-path="url(#p4f593394b2)" d="M 402.86226 144 
L 99.493287 46.636022 
" style="fill:none;stroke:#88ade8;"/>
    <path clip-path="url(#p4f593394b2)" d="M 402.86226 144 
L 47.642924 89.96706 
" style="fill:none;stroke:#88ade8;"/>
    <path clip-path="url(#p4f593394b2)" d="M 402.86226 144 
L 29.13774 144.000011 
" style="fill:none;stroke:#88ade8;"/>
    <path clip-path="url(#p4f593394b2)" d="M 402.86226 144 
L 47.642924 198.032932 
" style="fill:none;stroke:#88ade8;"/>
    <path clip-path="url(#p4f593394b2)" d="M 402.86226 144 
L 99.493321 241.363993 
" style="fill:none;stroke:#88ade8;"/>
    <path clip-path="url(#p4f593394b2)" d="M 384.357076 89.967068 
L 332.506713 46.636022 
" style="fill:none;stroke:#88ade8;"/>
    <path clip-path="url(#p4f593394b2)" d="M 384.357076 89.967068 
L 257.580773 22.589109 
" style="fill:none;stroke:#88ade8;"/>
    <path clip-path="url(#p4f593394b2)" d="M 384.357076 89.967068 
L 174.419233 22.589109 
" style="fill:none;stroke:#88ade8;"/>
    <path clip-path="url(#p4f593394b2)" d="M 384.357076 89.967068 
L 99.493287 46.636022 
" style="fill:none;stroke:#88ade8;"/>
    <path clip-path="url(#p4f593394b2)" d="M 384.357076 89.967068 
L 47.642924 89.96706 
" style="fill:none;stroke:#88ade8;"/>
    <path clip-path="url(#p4f593394b2)" d="M 384.357076 89.967068 
L 29.13774 144.000011 
" style="fill:none;stroke:#88ade8;"/>
    <path clip-path="url(#p4f593394b2)" d="M 384.357076 89.967068 
L 47.642924 198.032932 
" style="fill:none;stroke:#88ade8;"/>
    <path clip-path="url(#p4f593394b2)" d="M 384.357076 89.967068 
L 99.493321 241.363993 
" style="fill:none;stroke:#88ade8;"/>
    <path clip-path="url(#p4f593394b2)" d="M 332.506713 46.636022 
L 257.580773 22.589109 
" style="fill:none;stroke:#88ade8;"/>
    <path clip-path="url(#p4f593394b2)" d="M 332.506713 46.636022 
L 174.419233 22.589109 
" style="fill:none;stroke:#88ade8;"/>
    <path clip-path="url(#p4f593394b2)" d="M 332.506713 46.636022 
L 99.493287 46.636022 
" style="fill:none;stroke:#88ade8;"/>
    <path clip-path="url(#p4f593394b2)" d="M 332.506713 46.636022 
L 47.642924 89.96706 
" style="fill:none;stroke:#88ade8;"/>
    <path clip-path="url(#p4f593394b2)" d="M 332.506713 46.636022 
L 29.13774 144.000011 
" style="fill:none;stroke:#88ade8;"/>
    <path clip-path="url(#p4f593394b2)" d="M 332.506713 46.636022 
L 47.642924 198.032932 
" style="fill:none;stroke:#88ade8;"/>
    <path clip-path="url(#p4f593394b2)" d="M 332.506713 46.636022 
L 99.493321 241.363993 
" style="fill:none;stroke:#88ade8;"/>
    <path clip-path="url(#p4f593394b2)" d="M 257.580773 22.589109 
L 174.419233 22.589109 
" style="fill:none;stroke:#88ade8;"/>
    <path clip-path="url(#p4f593394b2)" d="M 257.580773 22.589109 
L 99.493287 46.636022 
" style="fill:none;stroke:#88ade8;"/>
    <path clip-path="url(#p4f593394b2)" d="M 257.580773 22.589109 
L 47.642924 89.96706 
" style="fill:none;stroke:#88ade8;"/>
    <path clip-path="url(#p4f593394b2)" d="M 257.580773 22.589109 
L 29.13774 144.000011 
" style="fill:none;stroke:#88ade8;"/>
    <path clip-path="url(#p4f593394b2)" d="M 257.580773 22.589109 
L 47.642924 198.032932 
" style="fill:none;stroke:#88ade8;"/>
    <path clip-path="url(#p4f593394b2)" d="M 257.580773 22.589109 
L 99.493321 241.363993 
" style="fill:none;stroke:#88ade8;"/>
    <path clip-path="url(#p4f593394b2)" d="M 174.419233 22.589109 
L 99.493287 46.636022 
" style="fill:none;stroke:#88ade8;"/>
    <path clip-path="url(#p4f593394b2)" d="M 174.419233 22.589109 
L 47.642924 89.96706 
" style="fill:none;stroke:#88ade8;"/>
    <path clip-path="url(#p4f593394b2)" d="M 174.419233 22.589109 
L 29.13774 144.000011 
" style="fill:none;stroke:#88ade8;"/>
    <path clip-path="url(#p4f593394b2)" d="M 174.419233 22.589109 
L 47.642924 198.032932 
" style="fill:none;stroke:#88ade8;"/>
    <path clip-path="url(#p4f593394b2)" d="M 174.419233 22.589109 
L 99.493321 241.363993 
" style="fill:none;stroke:#88ade8;"/>
    <path clip-path="url(#p4f593394b2)" d="M 99.493287 46.636022 
L 47.642924 89.96706 
" style="fill:none;stroke:#88ade8;"/>
    <path clip-path="url(#p4f593394b2)" d="M 99.493287 46.636022 
L 29.13774 144.000011 
" style="fill:none;stroke:#88ade8;"/>
    <path clip-path="url(#p4f593394b2)" d="M 99.493287 46.636022 
L 47.642924 198.032932 
" style="fill:none;stroke:#88ade8;"/>
    <path clip-path="url(#p4f593394b2)" d="M 99.493287 46.636022 
L 99.493321 241.363993 
" style="fill:none;stroke:#88ade8;"/>
    <path clip-path="url(#p4f593394b2)" d="M 47.642924 89.96706 
L 29.13774 144.000011 
" style="fill:none;stroke:#88ade8;"/>
    <path clip-path="url(#p4f593394b2)" d="M 47.642924 89.96706 
L 47.642924 198.032932 
" style="fill:none;stroke:#88ade8;"/>
    <path clip-path="url(#p4f593394b2)" d="M 47.642924 89.96706 
L 99.493321 241.363993 
" style="fill:none;stroke:#88ade8;"/>
    <path clip-path="url(#p4f593394b2)" d="M 29.13774 144.000011 
L 47.642924 198.032932 
" style="fill:none;stroke:#88ade8;"/>
    <path clip-path="url(#p4f593394b2)" d="M 29.13774 144.000011 
L 99.493321 241.363993 
" style="fill:none;stroke:#88ade8;"/>
    <path clip-path="url(#p4f593394b2)" d="M 47.642924 198.032932 
L 99.493321 241.363993 
" style="fill:none;stroke:#88ade8;"/>
   </g>
   <g id="PathCollection_1">
    <defs>
     <path d="M 0 21.965883 
C 5.82542 21.965883 11.41303 19.651419 15.532225 15.532225 
C 19.651419 11.41303 21.965883 5.82542 21.965883 0 
C 21.965883 -5.82542 19.651419 -11.41303 15.532225 -15.532225 
C 11.41303 -19.651419 5.82542 -21.965883 0 -21.965883 
C -5.82542 -21.965883 -11.41303 -19.651419 -15.532225 -15.532225 
C -19.651419 -11.41303 -21.965883 -5.82542 -21.965883 0 
C -21.965883 5.82542 -19.651419 11.41303 -15.532225 15.532225 
C -11.41303 19.651419 -5.82542 21.965883 0 21.965883 
z
" id="C0_0_fead8e99aa"/>
    </defs>
    <g clip-path="url(#p4f593394b2)">
     <use style="fill:#88ade8;stroke:#000000;" x="402.86226" xlink:href="#C0_0_fead8e99aa" y="144"/>
    </g>
    <g clip-path="url(#p4f593394b2)">
     <use style="fill:#88ade8;stroke:#000000;" x="384.357076" xlink:href="#C0_0_fead8e99aa" y="89.967068"/>
    </g>
    <g clip-path="url(#p4f593394b2)">
     <use style="fill:#88ade8;stroke:#000000;" x="332.506713" xlink:href="#C0_0_fead8e99aa" y="46.636022"/>
    </g>
    <g clip-path="url(#p4f593394b2)">
     <use style="fill:#88ade8;stroke:#000000;" x="257.580773" xlink:href="#C0_0_fead8e99aa" y="22.589109"/>
    </g>
    <g clip-path="url(#p4f593394b2)">
     <use style="fill:#88ade8;stroke:#000000;" x="174.419233" xlink:href="#C0_0_fead8e99aa" y="22.589109"/>
    </g>
    <g clip-path="url(#p4f593394b2)">
     <use style="fill:#88ade8;stroke:#000000;" x="99.493287" xlink:href="#C0_0_fead8e99aa" y="46.636022"/>
    </g>
    <g clip-path="url(#p4f593394b2)">
     <use style="fill:#88ade8;stroke:#000000;" x="47.642924" xlink:href="#C0_0_fead8e99aa" y="89.96706"/>
    </g>
    <g clip-path="url(#p4f593394b2)">
     <use style="fill:#88ade8;stroke:#000000;" x="29.13774" xlink:href="#C0_0_fead8e99aa" y="144.000011"/>
    </g>
    <g clip-path="url(#p4f593394b2)">
     <use style="fill:#88ade8;stroke:#000000;" x="47.642924" xlink:href="#C0_0_fead8e99aa" y="198.032932"/>
    </g>
    <g clip-path="url(#p4f593394b2)">
     <use style="fill:#88ade8;stroke:#000000;" x="99.493321" xlink:href="#C0_0_fead8e99aa" y="241.363993"/>
    </g>
    <g clip-path="url(#p4f593394b2)">
     <use style="fill:#ffc0cb;stroke:#000000;" x="174.419222" xlink:href="#C0_0_fead8e99aa" y="265.410891"/>
    </g>
    <g clip-path="url(#p4f593394b2)">
     <use style="fill:#ffff00;stroke:#000000;" x="257.580784" xlink:href="#C0_0_fead8e99aa" y="265.410891"/>
    </g>
    <g clip-path="url(#p4f593394b2)">
     <use style="fill:#ffa500;stroke:#000000;" x="332.50669" xlink:href="#C0_0_fead8e99aa" y="241.363993"/>
    </g>
    <g clip-path="url(#p4f593394b2)">
     <use style="fill:#008000;stroke:#000000;" x="384.357076" xlink:href="#C0_0_fead8e99aa" y="198.032932"/>
    </g>
   </g>
   <g id="text_1">
    <g clip-path="url(#p4f593394b2)">
     <!-- ZIII -->
     <defs>
      <path d="M 5.609375 72.90625 
L 62.890625 72.90625 
L 62.890625 65.375 
L 16.796875 8.296875 
L 64.015625 8.296875 
L 64.015625 0 
L 4.5 0 
L 4.5 7.515625 
L 50.59375 64.59375 
L 5.609375 64.59375 
z
" id="DejaVuSans-90"/>
      <path d="M 9.8125 72.90625 
L 19.671875 72.90625 
L 19.671875 0 
L 9.8125 0 
z
" id="DejaVuSans-73"/>
     </defs>
     <g transform="translate(390.30226 148.415)scale(0.16 -0.16)">
      <use xlink:href="#DejaVuSans-90"/>
      <use x="68.505859" xlink:href="#DejaVuSans-73"/>
      <use x="97.998047" xlink:href="#DejaVuSans-73"/>
      <use x="127.490234" xlink:href="#DejaVuSans-73"/>
     </g>
    </g>
   </g>
   <g id="text_2">
    <g clip-path="url(#p4f593394b2)">
     <!-- IZII -->
     <g transform="translate(371.797076 94.382068)scale(0.16 -0.16)">
      <use xlink:href="#DejaVuSans-73"/>
      <use x="29.492188" xlink:href="#DejaVuSans-90"/>
      <use x="97.998047" xlink:href="#DejaVuSans-73"/>
      <use x="127.490234" xlink:href="#DejaVuSans-73"/>
     </g>
    </g>
   </g>
   <g id="text_3">
    <g clip-path="url(#p4f593394b2)">
     <!-- IIZI -->
     <g transform="translate(319.946713 51.051022)scale(0.16 -0.16)">
      <use xlink:href="#DejaVuSans-73"/>
      <use x="29.492188" xlink:href="#DejaVuSans-73"/>
      <use x="58.984375" xlink:href="#DejaVuSans-90"/>
      <use x="127.490234" xlink:href="#DejaVuSans-73"/>
     </g>
    </g>
   </g>
   <g id="text_4">
    <g clip-path="url(#p4f593394b2)">
     <!-- IIIZ -->
     <g transform="translate(245.020773 27.004109)scale(0.16 -0.16)">
      <use xlink:href="#DejaVuSans-73"/>
      <use x="29.492188" xlink:href="#DejaVuSans-73"/>
      <use x="58.984375" xlink:href="#DejaVuSans-73"/>
      <use x="88.476562" xlink:href="#DejaVuSans-90"/>
     </g>
    </g>
   </g>
   <g id="text_5">
    <g clip-path="url(#p4f593394b2)">
     <!-- ZZII -->
     <g transform="translate(158.739233 27.004109)scale(0.16 -0.16)">
      <use xlink:href="#DejaVuSans-90"/>
      <use x="68.505859" xlink:href="#DejaVuSans-90"/>
      <use x="137.011719" xlink:href="#DejaVuSans-73"/>
      <use x="166.503906" xlink:href="#DejaVuSans-73"/>
     </g>
    </g>
   </g>
   <g id="text_6">
    <g clip-path="url(#p4f593394b2)">
     <!-- ZIZI -->
     <g transform="translate(83.813287 51.051022)scale(0.16 -0.16)">
      <use xlink:href="#DejaVuSans-90"/>
      <use x="68.505859" xlink:href="#DejaVuSans-73"/>
      <use x="97.998047" xlink:href="#DejaVuSans-90"/>
      <use x="166.503906" xlink:href="#DejaVuSans-73"/>
     </g>
    </g>
   </g>
   <g id="text_7">
    <g clip-path="url(#p4f593394b2)">
     <!-- IZZI -->
     <g transform="translate(31.962924 94.38206)scale(0.16 -0.16)">
      <use xlink:href="#DejaVuSans-73"/>
      <use x="29.492188" xlink:href="#DejaVuSans-90"/>
      <use x="97.998047" xlink:href="#DejaVuSans-90"/>
      <use x="166.503906" xlink:href="#DejaVuSans-73"/>
     </g>
    </g>
   </g>
   <g id="text_8">
    <g clip-path="url(#p4f593394b2)">
     <!-- ZIIZ -->
     <g transform="translate(13.45774 148.415011)scale(0.16 -0.16)">
      <use xlink:href="#DejaVuSans-90"/>
      <use x="68.505859" xlink:href="#DejaVuSans-73"/>
      <use x="97.998047" xlink:href="#DejaVuSans-73"/>
      <use x="127.490234" xlink:href="#DejaVuSans-90"/>
     </g>
    </g>
   </g>
   <g id="text_9">
    <g clip-path="url(#p4f593394b2)">
     <!-- IZIZ -->
     <g transform="translate(31.962924 202.447932)scale(0.16 -0.16)">
      <use xlink:href="#DejaVuSans-73"/>
      <use x="29.492188" xlink:href="#DejaVuSans-90"/>
      <use x="97.998047" xlink:href="#DejaVuSans-73"/>
      <use x="127.490234" xlink:href="#DejaVuSans-90"/>
     </g>
    </g>
   </g>
   <g id="text_10">
    <g clip-path="url(#p4f593394b2)">
     <!-- IIZZ -->
     <g transform="translate(83.813321 245.778993)scale(0.16 -0.16)">
      <use xlink:href="#DejaVuSans-73"/>
      <use x="29.492188" xlink:href="#DejaVuSans-73"/>
      <use x="58.984375" xlink:href="#DejaVuSans-90"/>
      <use x="127.490234" xlink:href="#DejaVuSans-90"/>
     </g>
    </g>
   </g>
   <g id="text_11">
    <g clip-path="url(#p4f593394b2)">
     <!-- XXYY -->
     <defs>
      <path d="M 6.296875 72.90625 
L 16.890625 72.90625 
L 35.015625 45.796875 
L 53.21875 72.90625 
L 63.8125 72.90625 
L 40.375 37.890625 
L 65.375 0 
L 54.78125 0 
L 34.28125 31 
L 13.625 0 
L 2.984375 0 
L 29 38.921875 
z
" id="DejaVuSans-88"/>
      <path d="M -0.203125 72.90625 
L 10.40625 72.90625 
L 30.609375 42.921875 
L 50.6875 72.90625 
L 61.28125 72.90625 
L 35.5 34.71875 
L 35.5 0 
L 25.59375 0 
L 25.59375 34.71875 
z
" id="DejaVuSans-89"/>
     </defs>
     <g transform="translate(153.686722 269.825891)scale(0.16 -0.16)">
      <use xlink:href="#DejaVuSans-88"/>
      <use x="68.505859" xlink:href="#DejaVuSans-88"/>
      <use x="137.011719" xlink:href="#DejaVuSans-89"/>
      <use x="198.095703" xlink:href="#DejaVuSans-89"/>
     </g>
    </g>
   </g>
   <g id="text_12">
    <g clip-path="url(#p4f593394b2)">
     <!-- YXXY -->
     <g transform="translate(236.848284 269.825891)scale(0.16 -0.16)">
      <use xlink:href="#DejaVuSans-89"/>
      <use x="61.083984" xlink:href="#DejaVuSans-88"/>
      <use x="129.589844" xlink:href="#DejaVuSans-88"/>
      <use x="198.095703" xlink:href="#DejaVuSans-89"/>
     </g>
    </g>
   </g>
   <g id="text_13">
    <g clip-path="url(#p4f593394b2)">
     <!-- XYYX -->
     <g transform="translate(311.77419 245.778993)scale(0.16 -0.16)">
      <use xlink:href="#DejaVuSans-88"/>
      <use x="68.505859" xlink:href="#DejaVuSans-89"/>
      <use x="129.589844" xlink:href="#DejaVuSans-89"/>
      <use x="190.673828" xlink:href="#DejaVuSans-88"/>
     </g>
    </g>
   </g>
   <g id="text_14">
    <g clip-path="url(#p4f593394b2)">
     <!-- YYXX -->
     <g transform="translate(363.624576 202.447932)scale(0.16 -0.16)">
      <use xlink:href="#DejaVuSans-89"/>
      <use x="61.083984" xlink:href="#DejaVuSans-89"/>
      <use x="122.167969" xlink:href="#DejaVuSans-88"/>
      <use x="190.673828" xlink:href="#DejaVuSans-88"/>
     </g>
    </g>
   </g>
  </g>
 </g>
 <defs>
  <clipPath id="p4f593394b2">
   <rect height="288" width="432" x="0" y="0"/>
  </clipPath>
 </defs>
</svg>
