<?xml version="1.0" encoding="utf-8" standalone="no"?>
<!DOCTYPE svg PUBLIC "-//W3C//DTD SVG 1.1//EN"
  "http://www.w3.org/Graphics/SVG/1.1/DTD/svg11.dtd">
<!-- Created with matplotlib (http://matplotlib.org/) -->
<svg height="288pt" version="1.1" viewBox="0 0 432 288" width="432pt" xmlns="http://www.w3.org/2000/svg" xmlns:xlink="http://www.w3.org/1999/xlink">
 <defs>
  <style type="text/css">
*{stroke-linecap:butt;stroke-linejoin:round;}
  </style>
 </defs>
 <g id="figure_1">
  <g id="patch_1">
   <path d="M 0 288 
L 432 288 
L 432 0 
L 0 0 
z
" style="fill:#ffffff;"/>
  </g>
  <g id="axes_1">
   <g id="LineCollection_1">
    <path clip-path="url(#pde78e8bccb)" d="M 402.86226 144 
L 388.638212 97.453387 
" style="fill:none;stroke:#d95b59;"/>
    <path clip-path="url(#pde78e8bccb)" d="M 402.86226 144 
L 348.131569 57.99308 
" style="fill:none;stroke:#d95b59;"/>
    <path clip-path="url(#pde78e8bccb)" d="M 402.86226 144 
L 287.50909 31.626545 
" style="fill:none;stroke:#d95b59;"/>
    <path clip-path="url(#pde78e8bccb)" d="M 402.86226 144 
L 216.000002 265.632155 
" style="fill:none;stroke:#d95b59;"/>
    <path clip-path="url(#pde78e8bccb)" d="M 402.86226 144 
L 287.509123 256.373447 
" style="fill:none;stroke:#d95b59;"/>
    <path clip-path="url(#pde78e8bccb)" d="M 402.86226 144 
L 348.131547 230.006934 
" style="fill:none;stroke:#d95b59;"/>
    <path clip-path="url(#pde78e8bccb)" d="M 402.86226 144 
L 388.638223 190.54661 
" style="fill:none;stroke:#d95b59;"/>
    <path clip-path="url(#pde78e8bccb)" d="M 388.638212 97.453387 
L 348.131569 57.99308 
" style="fill:none;stroke:#d95b59;"/>
    <path clip-path="url(#pde78e8bccb)" d="M 388.638212 97.453387 
L 287.50909 31.626545 
" style="fill:none;stroke:#d95b59;"/>
    <path clip-path="url(#pde78e8bccb)" d="M 388.638212 97.453387 
L 216.000002 265.632155 
" style="fill:none;stroke:#d95b59;"/>
    <path clip-path="url(#pde78e8bccb)" d="M 388.638212 97.453387 
L 287.509123 256.373447 
" style="fill:none;stroke:#d95b59;"/>
    <path clip-path="url(#pde78e8bccb)" d="M 388.638212 97.453387 
L 348.131547 230.006934 
" style="fill:none;stroke:#d95b59;"/>
    <path clip-path="url(#pde78e8bccb)" d="M 388.638212 97.453387 
L 388.638223 190.54661 
" style="fill:none;stroke:#d95b59;"/>
    <path clip-path="url(#pde78e8bccb)" d="M 348.131569 57.99308 
L 287.50909 31.626545 
" style="fill:none;stroke:#d95b59;"/>
    <path clip-path="url(#pde78e8bccb)" d="M 348.131569 57.99308 
L 216.000002 265.632155 
" style="fill:none;stroke:#d95b59;"/>
    <path clip-path="url(#pde78e8bccb)" d="M 348.131569 57.99308 
L 287.509123 256.373447 
" style="fill:none;stroke:#d95b59;"/>
    <path clip-path="url(#pde78e8bccb)" d="M 348.131569 57.99308 
L 348.131547 230.006934 
" style="fill:none;stroke:#d95b59;"/>
    <path clip-path="url(#pde78e8bccb)" d="M 348.131569 57.99308 
L 388.638223 190.54661 
" style="fill:none;stroke:#d95b59;"/>
    <path clip-path="url(#pde78e8bccb)" d="M 287.50909 31.626545 
L 216.000002 265.632155 
" style="fill:none;stroke:#d95b59;"/>
    <path clip-path="url(#pde78e8bccb)" d="M 287.50909 31.626545 
L 287.509123 256.373447 
" style="fill:none;stroke:#d95b59;"/>
    <path clip-path="url(#pde78e8bccb)" d="M 287.50909 31.626545 
L 348.131547 230.006934 
" style="fill:none;stroke:#d95b59;"/>
    <path clip-path="url(#pde78e8bccb)" d="M 287.50909 31.626545 
L 388.638223 190.54661 
" style="fill:none;stroke:#d95b59;"/>
    <path clip-path="url(#pde78e8bccb)" d="M 215.999992 22.367845 
L 144.490916 31.626538 
" style="fill:none;stroke:#d95b59;"/>
    <path clip-path="url(#pde78e8bccb)" d="M 215.999992 22.367845 
L 83.868431 57.99308 
" style="fill:none;stroke:#d95b59;"/>
    <path clip-path="url(#pde78e8bccb)" d="M 215.999992 22.367845 
L 43.361788 97.453383 
" style="fill:none;stroke:#d95b59;"/>
    <path clip-path="url(#pde78e8bccb)" d="M 215.999992 22.367845 
L 29.13774 144.000011 
" style="fill:none;stroke:#d95b59;"/>
    <path clip-path="url(#pde78e8bccb)" d="M 215.999992 22.367845 
L 43.361788 190.54661 
" style="fill:none;stroke:#d95b59;"/>
    <path clip-path="url(#pde78e8bccb)" d="M 215.999992 22.367845 
L 83.86842 230.006913 
" style="fill:none;stroke:#d95b59;"/>
    <path clip-path="url(#pde78e8bccb)" d="M 215.999992 22.367845 
L 144.490882 256.373455 
" style="fill:none;stroke:#d95b59;"/>
    <path clip-path="url(#pde78e8bccb)" d="M 144.490916 31.626538 
L 83.868431 57.99308 
" style="fill:none;stroke:#d95b59;"/>
    <path clip-path="url(#pde78e8bccb)" d="M 144.490916 31.626538 
L 43.361788 97.453383 
" style="fill:none;stroke:#d95b59;"/>
    <path clip-path="url(#pde78e8bccb)" d="M 144.490916 31.626538 
L 29.13774 144.000011 
" style="fill:none;stroke:#d95b59;"/>
    <path clip-path="url(#pde78e8bccb)" d="M 144.490916 31.626538 
L 43.361788 190.54661 
" style="fill:none;stroke:#d95b59;"/>
    <path clip-path="url(#pde78e8bccb)" d="M 144.490916 31.626538 
L 83.86842 230.006913 
" style="fill:none;stroke:#d95b59;"/>
    <path clip-path="url(#pde78e8bccb)" d="M 144.490916 31.626538 
L 144.490882 256.373455 
" style="fill:none;stroke:#d95b59;"/>
    <path clip-path="url(#pde78e8bccb)" d="M 83.868431 57.99308 
L 43.361788 97.453383 
" style="fill:none;stroke:#d95b59;"/>
    <path clip-path="url(#pde78e8bccb)" d="M 83.868431 57.99308 
L 29.13774 144.000011 
" style="fill:none;stroke:#d95b59;"/>
    <path clip-path="url(#pde78e8bccb)" d="M 83.868431 57.99308 
L 43.361788 190.54661 
" style="fill:none;stroke:#d95b59;"/>
    <path clip-path="url(#pde78e8bccb)" d="M 83.868431 57.99308 
L 83.86842 230.006913 
" style="fill:none;stroke:#d95b59;"/>
    <path clip-path="url(#pde78e8bccb)" d="M 83.868431 57.99308 
L 144.490882 256.373455 
" style="fill:none;stroke:#d95b59;"/>
    <path clip-path="url(#pde78e8bccb)" d="M 43.361788 97.453383 
L 29.13774 144.000011 
" style="fill:none;stroke:#d95b59;"/>
    <path clip-path="url(#pde78e8bccb)" d="M 43.361788 97.453383 
L 43.361788 190.54661 
" style="fill:none;stroke:#d95b59;"/>
    <path clip-path="url(#pde78e8bccb)" d="M 43.361788 97.453383 
L 83.86842 230.006913 
" style="fill:none;stroke:#d95b59;"/>
    <path clip-path="url(#pde78e8bccb)" d="M 43.361788 97.453383 
L 144.490882 256.373455 
" style="fill:none;stroke:#d95b59;"/>
    <path clip-path="url(#pde78e8bccb)" d="M 29.13774 144.000011 
L 43.361788 190.54661 
" style="fill:none;stroke:#d95b59;"/>
    <path clip-path="url(#pde78e8bccb)" d="M 29.13774 144.000011 
L 83.86842 230.006913 
" style="fill:none;stroke:#d95b59;"/>
    <path clip-path="url(#pde78e8bccb)" d="M 29.13774 144.000011 
L 144.490882 256.373455 
" style="fill:none;stroke:#d95b59;"/>
    <path clip-path="url(#pde78e8bccb)" d="M 43.361788 190.54661 
L 83.86842 230.006913 
" style="fill:none;stroke:#d95b59;"/>
    <path clip-path="url(#pde78e8bccb)" d="M 43.361788 190.54661 
L 144.490882 256.373455 
" style="fill:none;stroke:#d95b59;"/>
    <path clip-path="url(#pde78e8bccb)" d="M 83.86842 230.006913 
L 144.490882 256.373455 
" style="fill:none;stroke:#d95b59;"/>
    <path clip-path="url(#pde78e8bccb)" d="M 216.000002 265.632155 
L 287.509123 256.373447 
" style="fill:none;stroke:#d95b59;"/>
    <path clip-path="url(#pde78e8bccb)" d="M 216.000002 265.632155 
L 348.131547 230.006934 
" style="fill:none;stroke:#d95b59;"/>
    <path clip-path="url(#pde78e8bccb)" d="M 216.000002 265.632155 
L 388.638223 190.54661 
" style="fill:none;stroke:#d95b59;"/>
    <path clip-path="url(#pde78e8bccb)" d="M 287.509123 256.373447 
L 348.131547 230.006934 
" style="fill:none;stroke:#d95b59;"/>
    <path clip-path="url(#pde78e8bccb)" d="M 287.509123 256.373447 
L 388.638223 190.54661 
" style="fill:none;stroke:#d95b59;"/>
    <path clip-path="url(#pde78e8bccb)" d="M 348.131547 230.006934 
L 388.638223 190.54661 
" style="fill:none;stroke:#d95b59;"/>
   </g>
   <g id="PathCollection_1">
    <defs>
     <path d="M 0 21.965883 
C 5.82542 21.965883 11.41303 19.651419 15.532225 15.532225 
C 19.651419 11.41303 21.965883 5.82542 21.965883 0 
C 21.965883 -5.82542 19.651419 -11.41303 15.532225 -15.532225 
C 11.41303 -19.651419 5.82542 -21.965883 0 -21.965883 
C -5.82542 -21.965883 -11.41303 -19.651419 -15.532225 -15.532225 
C -19.651419 -11.41303 -21.965883 -5.82542 -21.965883 0 
C -21.965883 5.82542 -19.651419 11.41303 -15.532225 15.532225 
C -11.41303 19.651419 -5.82542 21.965883 0 21.965883 
z
" id="C0_0_34434185e5"/>
    </defs>
    <g clip-path="url(#pde78e8bccb)">
     <use style="fill:#ffa500;stroke:#000000;" x="402.86226" xlink:href="#C0_0_34434185e5" y="144"/>
    </g>
    <g clip-path="url(#pde78e8bccb)">
     <use style="fill:#ffa500;stroke:#000000;" x="388.638212" xlink:href="#C0_0_34434185e5" y="97.453387"/>
    </g>
    <g clip-path="url(#pde78e8bccb)">
     <use style="fill:#ffa500;stroke:#000000;" x="348.131569" xlink:href="#C0_0_34434185e5" y="57.99308"/>
    </g>
    <g clip-path="url(#pde78e8bccb)">
     <use style="fill:#ffa500;stroke:#000000;" x="287.50909" xlink:href="#C0_0_34434185e5" y="31.626545"/>
    </g>
    <g clip-path="url(#pde78e8bccb)">
     <use style="fill:#008000;stroke:#000000;" x="215.999992" xlink:href="#C0_0_34434185e5" y="22.367845"/>
    </g>
    <g clip-path="url(#pde78e8bccb)">
     <use style="fill:#008000;stroke:#000000;" x="144.490916" xlink:href="#C0_0_34434185e5" y="31.626538"/>
    </g>
    <g clip-path="url(#pde78e8bccb)">
     <use style="fill:#008000;stroke:#000000;" x="83.868431" xlink:href="#C0_0_34434185e5" y="57.99308"/>
    </g>
    <g clip-path="url(#pde78e8bccb)">
     <use style="fill:#008000;stroke:#000000;" x="43.361788" xlink:href="#C0_0_34434185e5" y="97.453383"/>
    </g>
    <g clip-path="url(#pde78e8bccb)">
     <use style="fill:#008000;stroke:#000000;" x="29.13774" xlink:href="#C0_0_34434185e5" y="144.000011"/>
    </g>
    <g clip-path="url(#pde78e8bccb)">
     <use style="fill:#008000;stroke:#000000;" x="43.361788" xlink:href="#C0_0_34434185e5" y="190.54661"/>
    </g>
    <g clip-path="url(#pde78e8bccb)">
     <use style="fill:#008000;stroke:#000000;" x="83.86842" xlink:href="#C0_0_34434185e5" y="230.006913"/>
    </g>
    <g clip-path="url(#pde78e8bccb)">
     <use style="fill:#008000;stroke:#000000;" x="144.490882" xlink:href="#C0_0_34434185e5" y="256.373455"/>
    </g>
    <g clip-path="url(#pde78e8bccb)">
     <use style="fill:#ffa500;stroke:#000000;" x="216.000002" xlink:href="#C0_0_34434185e5" y="265.632155"/>
    </g>
    <g clip-path="url(#pde78e8bccb)">
     <use style="fill:#ffa500;stroke:#000000;" x="287.509123" xlink:href="#C0_0_34434185e5" y="256.373447"/>
    </g>
    <g clip-path="url(#pde78e8bccb)">
     <use style="fill:#ffa500;stroke:#000000;" x="348.131547" xlink:href="#C0_0_34434185e5" y="230.006934"/>
    </g>
    <g clip-path="url(#pde78e8bccb)">
     <use style="fill:#ffa500;stroke:#000000;" x="388.638223" xlink:href="#C0_0_34434185e5" y="190.54661"/>
    </g>
   </g>
   <g id="text_1">
    <g clip-path="url(#pde78e8bccb)">
     <!-- YXXX -->
     <defs>
      <path d="M -0.203125 72.90625 
L 10.40625 72.90625 
L 30.609375 42.921875 
L 50.6875 72.90625 
L 61.28125 72.90625 
L 35.5 34.71875 
L 35.5 0 
L 25.59375 0 
L 25.59375 34.71875 
z
" id="DejaVuSans-59"/>
      <path d="M 6.296875 72.90625 
L 16.890625 72.90625 
L 35.015625 45.796875 
L 53.21875 72.90625 
L 63.8125 72.90625 
L 40.375 37.890625 
L 65.375 0 
L 54.78125 0 
L 34.28125 31 
L 13.625 0 
L 2.984375 0 
L 29 38.921875 
z
" id="DejaVuSans-58"/>
     </defs>
     <g transform="translate(381.53601 148.415)scale(0.16 -0.16)">
      <use xlink:href="#DejaVuSans-59"/>
      <use x="61.083984" xlink:href="#DejaVuSans-58"/>
      <use x="129.589844" xlink:href="#DejaVuSans-58"/>
      <use x="198.095703" xlink:href="#DejaVuSans-58"/>
     </g>
    </g>
   </g>
   <g id="text_2">
    <g clip-path="url(#pde78e8bccb)">
     <!-- YXYY -->
     <g transform="translate(368.499462 101.868387)scale(0.16 -0.16)">
      <use xlink:href="#DejaVuSans-59"/>
      <use x="61.083984" xlink:href="#DejaVuSans-58"/>
      <use x="129.589844" xlink:href="#DejaVuSans-59"/>
      <use x="190.673828" xlink:href="#DejaVuSans-59"/>
     </g>
    </g>
   </g>
   <g id="text_3">
    <g clip-path="url(#pde78e8bccb)">
     <!-- YYXY -->
     <g transform="translate(327.992819 62.40808)scale(0.16 -0.16)">
      <use xlink:href="#DejaVuSans-59"/>
      <use x="61.083984" xlink:href="#DejaVuSans-59"/>
      <use x="122.167969" xlink:href="#DejaVuSans-58"/>
      <use x="190.673828" xlink:href="#DejaVuSans-59"/>
     </g>
    </g>
   </g>
   <g id="text_4">
    <g clip-path="url(#pde78e8bccb)">
     <!-- YYYX -->
     <g transform="translate(267.37034 36.041545)scale(0.16 -0.16)">
      <use xlink:href="#DejaVuSans-59"/>
      <use x="61.083984" xlink:href="#DejaVuSans-59"/>
      <use x="122.167969" xlink:href="#DejaVuSans-59"/>
      <use x="183.251953" xlink:href="#DejaVuSans-58"/>
     </g>
    </g>
   </g>
   <g id="text_5">
    <g clip-path="url(#pde78e8bccb)">
     <!-- XXXX -->
     <g transform="translate(194.079992 26.782845)scale(0.16 -0.16)">
      <use xlink:href="#DejaVuSans-58"/>
      <use x="68.505859" xlink:href="#DejaVuSans-58"/>
      <use x="137.011719" xlink:href="#DejaVuSans-58"/>
      <use x="205.517578" xlink:href="#DejaVuSans-58"/>
     </g>
    </g>
   </g>
   <g id="text_6">
    <g clip-path="url(#pde78e8bccb)">
     <!-- XXYY -->
     <g transform="translate(123.758416 36.041538)scale(0.16 -0.16)">
      <use xlink:href="#DejaVuSans-58"/>
      <use x="68.505859" xlink:href="#DejaVuSans-58"/>
      <use x="137.011719" xlink:href="#DejaVuSans-59"/>
      <use x="198.095703" xlink:href="#DejaVuSans-59"/>
     </g>
    </g>
   </g>
   <g id="text_7">
    <g clip-path="url(#pde78e8bccb)">
     <!-- XYXY -->
     <g transform="translate(63.135931 62.40808)scale(0.16 -0.16)">
      <use xlink:href="#DejaVuSans-58"/>
      <use x="68.505859" xlink:href="#DejaVuSans-59"/>
      <use x="129.589844" xlink:href="#DejaVuSans-58"/>
      <use x="198.095703" xlink:href="#DejaVuSans-59"/>
     </g>
    </g>
   </g>
   <g id="text_8">
    <g clip-path="url(#pde78e8bccb)">
     <!-- XYYX -->
     <g transform="translate(22.629288 101.868383)scale(0.16 -0.16)">
      <use xlink:href="#DejaVuSans-58"/>
      <use x="68.505859" xlink:href="#DejaVuSans-59"/>
      <use x="129.589844" xlink:href="#DejaVuSans-59"/>
      <use x="190.673828" xlink:href="#DejaVuSans-58"/>
     </g>
    </g>
   </g>
   <g id="text_9">
    <g clip-path="url(#pde78e8bccb)">
     <!-- YXXY -->
     <g transform="translate(8.40524 148.415011)scale(0.16 -0.16)">
      <use xlink:href="#DejaVuSans-59"/>
      <use x="61.083984" xlink:href="#DejaVuSans-58"/>
      <use x="129.589844" xlink:href="#DejaVuSans-58"/>
      <use x="198.095703" xlink:href="#DejaVuSans-59"/>
     </g>
    </g>
   </g>
   <g id="text_10">
    <g clip-path="url(#pde78e8bccb)">
     <!-- YXYX -->
     <g transform="translate(22.629288 194.96161)scale(0.16 -0.16)">
      <use xlink:href="#DejaVuSans-59"/>
      <use x="61.083984" xlink:href="#DejaVuSans-58"/>
      <use x="129.589844" xlink:href="#DejaVuSans-59"/>
      <use x="190.673828" xlink:href="#DejaVuSans-58"/>
     </g>
    </g>
   </g>
   <g id="text_11">
    <g clip-path="url(#pde78e8bccb)">
     <!-- YYXX -->
     <g transform="translate(63.13592 234.421913)scale(0.16 -0.16)">
      <use xlink:href="#DejaVuSans-59"/>
      <use x="61.083984" xlink:href="#DejaVuSans-59"/>
      <use x="122.167969" xlink:href="#DejaVuSans-58"/>
      <use x="190.673828" xlink:href="#DejaVuSans-58"/>
     </g>
    </g>
   </g>
   <g id="text_12">
    <g clip-path="url(#pde78e8bccb)">
     <!-- YYYY -->
     <g transform="translate(124.945882 260.788455)scale(0.16 -0.16)">
      <use xlink:href="#DejaVuSans-59"/>
      <use x="61.083984" xlink:href="#DejaVuSans-59"/>
      <use x="122.167969" xlink:href="#DejaVuSans-59"/>
      <use x="183.251953" xlink:href="#DejaVuSans-59"/>
     </g>
    </g>
   </g>
   <g id="text_13">
    <g clip-path="url(#pde78e8bccb)">
     <!-- XXXY -->
     <g transform="translate(194.673752 270.047155)scale(0.16 -0.16)">
      <use xlink:href="#DejaVuSans-58"/>
      <use x="68.505859" xlink:href="#DejaVuSans-58"/>
      <use x="137.011719" xlink:href="#DejaVuSans-58"/>
      <use x="205.517578" xlink:href="#DejaVuSans-59"/>
     </g>
    </g>
   </g>
   <g id="text_14">
    <g clip-path="url(#pde78e8bccb)">
     <!-- XXYX -->
     <g transform="translate(266.182873 260.788447)scale(0.16 -0.16)">
      <use xlink:href="#DejaVuSans-58"/>
      <use x="68.505859" xlink:href="#DejaVuSans-58"/>
      <use x="137.011719" xlink:href="#DejaVuSans-59"/>
      <use x="198.095703" xlink:href="#DejaVuSans-58"/>
     </g>
    </g>
   </g>
   <g id="text_15">
    <g clip-path="url(#pde78e8bccb)">
     <!-- XYXX -->
     <g transform="translate(326.805297 234.421934)scale(0.16 -0.16)">
      <use xlink:href="#DejaVuSans-58"/>
      <use x="68.505859" xlink:href="#DejaVuSans-59"/>
      <use x="129.589844" xlink:href="#DejaVuSans-58"/>
      <use x="198.095703" xlink:href="#DejaVuSans-58"/>
     </g>
    </g>
   </g>
   <g id="text_16">
    <g clip-path="url(#pde78e8bccb)">
     <!-- XYYY -->
     <g transform="translate(368.499473 194.96161)scale(0.16 -0.16)">
      <use xlink:href="#DejaVuSans-58"/>
      <use x="68.505859" xlink:href="#DejaVuSans-59"/>
      <use x="129.589844" xlink:href="#DejaVuSans-59"/>
      <use x="190.673828" xlink:href="#DejaVuSans-59"/>
     </g>
    </g>
   </g>
  </g>
 </g>
 <defs>
  <clipPath id="pde78e8bccb">
   <rect height="288" width="432" x="0" y="0"/>
  </clipPath>
 </defs>
</svg>
