<?xml version="1.0" encoding="utf-8" standalone="no"?>
<!DOCTYPE svg PUBLIC "-//W3C//DTD SVG 1.1//EN"
  "http://www.w3.org/Graphics/SVG/1.1/DTD/svg11.dtd">
<!-- Created with matplotlib (http://matplotlib.org/) -->
<svg height="360pt" version="1.1" viewBox="0 0 576 360" width="576pt" xmlns="http://www.w3.org/2000/svg" xmlns:xlink="http://www.w3.org/1999/xlink">
 <defs>
  <style type="text/css">
*{stroke-linecap:butt;stroke-linejoin:round;}
  </style>
 </defs>
 <g id="figure_1">
  <g id="patch_1">
   <path d="M 0 360 
L 576 360 
L 576 0 
L 0 0 
z
" style="fill:#ffffff;"/>
  </g>
  <g id="axes_1">
   <g id="LineCollection_1">
    <path clip-path="url(#p71c6fe1c64)" d="M 159.208081 91.109784 
L 295.2 179.1 
" style="fill:none;stroke:#d95b59;"/>
    <path clip-path="url(#p71c6fe1c64)" d="M 159.208081 91.109784 
L 159.208081 267.090216 
" style="fill:none;stroke:#d95b59;"/>
    <path clip-path="url(#p71c6fe1c64)" d="M 159.208081 267.090216 
L 295.2 179.1 
" style="fill:none;stroke:#d95b59;"/>
    <path clip-path="url(#p71c6fe1c64)" d="M 295.2 179.1 
L 431.191919 91.109784 
" style="fill:none;stroke:#88ade8;"/>
    <path clip-path="url(#p71c6fe1c64)" d="M 295.2 179.1 
L 431.191919 267.090216 
" style="fill:none;stroke:#88ade8;"/>
    <path clip-path="url(#p71c6fe1c64)" d="M 431.191919 267.090216 
L 431.191919 91.109784 
" style="fill:none;stroke:#88ade8;"/>
   </g>
   <g id="patch_2">
    <path clip-path="url(#p71c6fe1c64)" d="M 397.872 294.615 
L 464.832 294.615 
L 464.832 63.585 
L 397.872 63.585 
z
" style="fill:none;stroke:#000000;stroke-linejoin:miter;stroke-width:2;"/>
   </g>
   <g id="patch_3">
    <path clip-path="url(#p71c6fe1c64)" d="M 127.8 294.615 
L 328.68 294.615 
L 328.68 153.279 
L 127.8 153.279 
z
" style="fill:none;stroke:#000000;stroke-linejoin:miter;stroke-width:2;"/>
   </g>
   <g id="patch_4">
    <path clip-path="url(#p71c6fe1c64)" d="M 131.3712 119.304 
L 189.4032 119.304 
L 189.4032 64.944 
L 131.3712 64.944 
z
" style="fill:none;stroke:#000000;stroke-linejoin:miter;stroke-width:2;"/>
   </g>
   <g id="PathCollection_1">
    <defs>
     <path d="M 0 21.965883 
C 5.82542 21.965883 11.41303 19.651419 15.532225 15.532225 
C 19.651419 11.41303 21.965883 5.82542 21.965883 0 
C 21.965883 -5.82542 19.651419 -11.41303 15.532225 -15.532225 
C 11.41303 -19.651419 5.82542 -21.965883 0 -21.965883 
C -5.82542 -21.965883 -11.41303 -19.651419 -15.532225 -15.532225 
C -19.651419 -11.41303 -21.965883 -5.82542 -21.965883 0 
C -21.965883 5.82542 -19.651419 11.41303 -15.532225 15.532225 
C -11.41303 19.651419 -5.82542 21.965883 0 21.965883 
z
" id="m9330f37bd8" style="stroke:#000000;"/>
    </defs>
    <g clip-path="url(#p71c6fe1c64)">
     <use style="fill:#ffffff;stroke:#000000;" x="159.208081" xlink:href="#m9330f37bd8" y="91.109784"/>
     <use style="fill:#ffffff;stroke:#000000;" x="159.208081" xlink:href="#m9330f37bd8" y="267.090216"/>
     <use style="fill:#ffffff;stroke:#000000;" x="295.2" xlink:href="#m9330f37bd8" y="179.1"/>
     <use style="fill:#ffffff;stroke:#000000;" x="431.191919" xlink:href="#m9330f37bd8" y="267.090216"/>
     <use style="fill:#ffffff;stroke:#000000;" x="431.191919" xlink:href="#m9330f37bd8" y="91.109784"/>
    </g>
   </g>
   <g id="text_1">
    <g clip-path="url(#p71c6fe1c64)">
     <!-- XX -->
     <defs>
      <path d="M 6.296875 72.90625 
L 16.890625 72.90625 
L 35.015625 45.796875 
L 53.21875 72.90625 
L 63.8125 72.90625 
L 40.375 37.890625 
L 65.375 0 
L 54.78125 0 
L 34.28125 31 
L 13.625 0 
L 2.984375 0 
L 29 38.921875 
z
" id="DejaVuSans-58"/>
     </defs>
     <g transform="translate(148.248081 95.524784)scale(0.16 -0.16)">
      <use xlink:href="#DejaVuSans-58"/>
      <use x="68.505859" xlink:href="#DejaVuSans-58"/>
     </g>
    </g>
   </g>
   <g id="text_2">
    <g clip-path="url(#p71c6fe1c64)">
     <!-- YY -->
     <defs>
      <path d="M -0.203125 72.90625 
L 10.40625 72.90625 
L 30.609375 42.921875 
L 50.6875 72.90625 
L 61.28125 72.90625 
L 35.5 34.71875 
L 35.5 0 
L 25.59375 0 
L 25.59375 34.71875 
z
" id="DejaVuSans-59"/>
     </defs>
     <g transform="translate(149.435581 271.505216)scale(0.16 -0.16)">
      <use xlink:href="#DejaVuSans-59"/>
      <use x="61.083984" xlink:href="#DejaVuSans-59"/>
     </g>
    </g>
   </g>
   <g id="text_3">
    <g clip-path="url(#p71c6fe1c64)">
     <!-- ZZ -->
     <defs>
      <path d="M 5.609375 72.90625 
L 62.890625 72.90625 
L 62.890625 65.375 
L 16.796875 8.296875 
L 64.015625 8.296875 
L 64.015625 0 
L 4.5 0 
L 4.5 7.515625 
L 50.59375 64.59375 
L 5.609375 64.59375 
z
" id="DejaVuSans-5a"/>
     </defs>
     <g transform="translate(284.24 183.515)scale(0.16 -0.16)">
      <use xlink:href="#DejaVuSans-5a"/>
      <use x="68.505859" xlink:href="#DejaVuSans-5a"/>
     </g>
    </g>
   </g>
   <g id="text_4">
    <g clip-path="url(#p71c6fe1c64)">
     <!-- IZ -->
     <defs>
      <path d="M 9.8125 72.90625 
L 19.671875 72.90625 
L 19.671875 0 
L 9.8125 0 
z
" id="DejaVuSans-49"/>
     </defs>
     <g transform="translate(423.351919 271.505216)scale(0.16 -0.16)">
      <use xlink:href="#DejaVuSans-49"/>
      <use x="29.492188" xlink:href="#DejaVuSans-5a"/>
     </g>
    </g>
   </g>
   <g id="text_5">
    <g clip-path="url(#p71c6fe1c64)">
     <!-- ZI -->
     <g transform="translate(423.351919 95.524784)scale(0.16 -0.16)">
      <use xlink:href="#DejaVuSans-5a"/>
      <use x="68.505859" xlink:href="#DejaVuSans-49"/>
     </g>
    </g>
   </g>
  </g>
 </g>
 <defs>
  <clipPath id="p71c6fe1c64">
   <rect height="271.8" width="446.4" x="72" y="43.2"/>
  </clipPath>
 </defs>
</svg>
