<?xml version="1.0" encoding="utf-8" standalone="no"?>
<!DOCTYPE svg PUBLIC "-//W3C//DTD SVG 1.1//EN"
  "http://www.w3.org/Graphics/SVG/1.1/DTD/svg11.dtd">
<!-- Created with matplotlib (http://matplotlib.org/) -->
<svg height="288pt" version="1.1" viewBox="0 0 432 288" width="432pt" xmlns="http://www.w3.org/2000/svg" xmlns:xlink="http://www.w3.org/1999/xlink">
 <defs>
  <style type="text/css">
*{stroke-linecap:butt;stroke-linejoin:round;}
  </style>
 </defs>
 <g id="figure_1">
  <g id="patch_1">
   <path d="M 0 288 
L 432 288 
L 432 0 
L 0 0 
z
" style="fill:#ffffff;"/>
  </g>
  <g id="axes_1">
   <g id="LineCollection_1">
    <path clip-path="url(#pc0d4766203)" d="M 402.86226 144 
L 388.638212 97.453387 
" style="fill:none;stroke:#d95b59;"/>
    <path clip-path="url(#pc0d4766203)" d="M 402.86226 144 
L 348.131569 57.99308 
" style="fill:none;stroke:#d95b59;"/>
    <path clip-path="url(#pc0d4766203)" d="M 402.86226 144 
L 287.50909 31.626545 
" style="fill:none;stroke:#d95b59;"/>
    <path clip-path="url(#pc0d4766203)" d="M 402.86226 144 
L 216.000002 265.632155 
" style="fill:none;stroke:#d95b59;"/>
    <path clip-path="url(#pc0d4766203)" d="M 402.86226 144 
L 287.509123 256.373447 
" style="fill:none;stroke:#d95b59;"/>
    <path clip-path="url(#pc0d4766203)" d="M 402.86226 144 
L 348.131547 230.006934 
" style="fill:none;stroke:#d95b59;"/>
    <path clip-path="url(#pc0d4766203)" d="M 402.86226 144 
L 388.638223 190.54661 
" style="fill:none;stroke:#d95b59;"/>
    <path clip-path="url(#pc0d4766203)" d="M 388.638212 97.453387 
L 348.131569 57.99308 
" style="fill:none;stroke:#d95b59;"/>
    <path clip-path="url(#pc0d4766203)" d="M 388.638212 97.453387 
L 287.50909 31.626545 
" style="fill:none;stroke:#d95b59;"/>
    <path clip-path="url(#pc0d4766203)" d="M 388.638212 97.453387 
L 216.000002 265.632155 
" style="fill:none;stroke:#d95b59;"/>
    <path clip-path="url(#pc0d4766203)" d="M 388.638212 97.453387 
L 287.509123 256.373447 
" style="fill:none;stroke:#d95b59;"/>
    <path clip-path="url(#pc0d4766203)" d="M 388.638212 97.453387 
L 348.131547 230.006934 
" style="fill:none;stroke:#d95b59;"/>
    <path clip-path="url(#pc0d4766203)" d="M 388.638212 97.453387 
L 388.638223 190.54661 
" style="fill:none;stroke:#d95b59;"/>
    <path clip-path="url(#pc0d4766203)" d="M 348.131569 57.99308 
L 287.50909 31.626545 
" style="fill:none;stroke:#d95b59;"/>
    <path clip-path="url(#pc0d4766203)" d="M 348.131569 57.99308 
L 216.000002 265.632155 
" style="fill:none;stroke:#d95b59;"/>
    <path clip-path="url(#pc0d4766203)" d="M 348.131569 57.99308 
L 287.509123 256.373447 
" style="fill:none;stroke:#d95b59;"/>
    <path clip-path="url(#pc0d4766203)" d="M 348.131569 57.99308 
L 348.131547 230.006934 
" style="fill:none;stroke:#d95b59;"/>
    <path clip-path="url(#pc0d4766203)" d="M 348.131569 57.99308 
L 388.638223 190.54661 
" style="fill:none;stroke:#d95b59;"/>
    <path clip-path="url(#pc0d4766203)" d="M 287.50909 31.626545 
L 216.000002 265.632155 
" style="fill:none;stroke:#d95b59;"/>
    <path clip-path="url(#pc0d4766203)" d="M 287.50909 31.626545 
L 287.509123 256.373447 
" style="fill:none;stroke:#d95b59;"/>
    <path clip-path="url(#pc0d4766203)" d="M 287.50909 31.626545 
L 348.131547 230.006934 
" style="fill:none;stroke:#d95b59;"/>
    <path clip-path="url(#pc0d4766203)" d="M 287.50909 31.626545 
L 388.638223 190.54661 
" style="fill:none;stroke:#d95b59;"/>
    <path clip-path="url(#pc0d4766203)" d="M 215.999992 22.367845 
L 144.490916 31.626538 
" style="fill:none;stroke:#d95b59;"/>
    <path clip-path="url(#pc0d4766203)" d="M 215.999992 22.367845 
L 83.868431 57.99308 
" style="fill:none;stroke:#d95b59;"/>
    <path clip-path="url(#pc0d4766203)" d="M 215.999992 22.367845 
L 43.361788 97.453383 
" style="fill:none;stroke:#d95b59;"/>
    <path clip-path="url(#pc0d4766203)" d="M 215.999992 22.367845 
L 29.13774 144.000011 
" style="fill:none;stroke:#d95b59;"/>
    <path clip-path="url(#pc0d4766203)" d="M 215.999992 22.367845 
L 43.361788 190.54661 
" style="fill:none;stroke:#d95b59;"/>
    <path clip-path="url(#pc0d4766203)" d="M 215.999992 22.367845 
L 83.86842 230.006913 
" style="fill:none;stroke:#d95b59;"/>
    <path clip-path="url(#pc0d4766203)" d="M 215.999992 22.367845 
L 144.490882 256.373455 
" style="fill:none;stroke:#d95b59;"/>
    <path clip-path="url(#pc0d4766203)" d="M 144.490916 31.626538 
L 83.868431 57.99308 
" style="fill:none;stroke:#d95b59;"/>
    <path clip-path="url(#pc0d4766203)" d="M 144.490916 31.626538 
L 43.361788 97.453383 
" style="fill:none;stroke:#d95b59;"/>
    <path clip-path="url(#pc0d4766203)" d="M 144.490916 31.626538 
L 29.13774 144.000011 
" style="fill:none;stroke:#d95b59;"/>
    <path clip-path="url(#pc0d4766203)" d="M 144.490916 31.626538 
L 43.361788 190.54661 
" style="fill:none;stroke:#d95b59;"/>
    <path clip-path="url(#pc0d4766203)" d="M 144.490916 31.626538 
L 83.86842 230.006913 
" style="fill:none;stroke:#d95b59;"/>
    <path clip-path="url(#pc0d4766203)" d="M 144.490916 31.626538 
L 144.490882 256.373455 
" style="fill:none;stroke:#d95b59;"/>
    <path clip-path="url(#pc0d4766203)" d="M 83.868431 57.99308 
L 43.361788 97.453383 
" style="fill:none;stroke:#d95b59;"/>
    <path clip-path="url(#pc0d4766203)" d="M 83.868431 57.99308 
L 29.13774 144.000011 
" style="fill:none;stroke:#d95b59;"/>
    <path clip-path="url(#pc0d4766203)" d="M 83.868431 57.99308 
L 43.361788 190.54661 
" style="fill:none;stroke:#d95b59;"/>
    <path clip-path="url(#pc0d4766203)" d="M 83.868431 57.99308 
L 83.86842 230.006913 
" style="fill:none;stroke:#d95b59;"/>
    <path clip-path="url(#pc0d4766203)" d="M 83.868431 57.99308 
L 144.490882 256.373455 
" style="fill:none;stroke:#d95b59;"/>
    <path clip-path="url(#pc0d4766203)" d="M 43.361788 97.453383 
L 29.13774 144.000011 
" style="fill:none;stroke:#d95b59;"/>
    <path clip-path="url(#pc0d4766203)" d="M 43.361788 97.453383 
L 43.361788 190.54661 
" style="fill:none;stroke:#d95b59;"/>
    <path clip-path="url(#pc0d4766203)" d="M 43.361788 97.453383 
L 83.86842 230.006913 
" style="fill:none;stroke:#d95b59;"/>
    <path clip-path="url(#pc0d4766203)" d="M 43.361788 97.453383 
L 144.490882 256.373455 
" style="fill:none;stroke:#d95b59;"/>
    <path clip-path="url(#pc0d4766203)" d="M 29.13774 144.000011 
L 43.361788 190.54661 
" style="fill:none;stroke:#d95b59;"/>
    <path clip-path="url(#pc0d4766203)" d="M 29.13774 144.000011 
L 83.86842 230.006913 
" style="fill:none;stroke:#d95b59;"/>
    <path clip-path="url(#pc0d4766203)" d="M 29.13774 144.000011 
L 144.490882 256.373455 
" style="fill:none;stroke:#d95b59;"/>
    <path clip-path="url(#pc0d4766203)" d="M 43.361788 190.54661 
L 83.86842 230.006913 
" style="fill:none;stroke:#d95b59;"/>
    <path clip-path="url(#pc0d4766203)" d="M 43.361788 190.54661 
L 144.490882 256.373455 
" style="fill:none;stroke:#d95b59;"/>
    <path clip-path="url(#pc0d4766203)" d="M 83.86842 230.006913 
L 144.490882 256.373455 
" style="fill:none;stroke:#d95b59;"/>
    <path clip-path="url(#pc0d4766203)" d="M 216.000002 265.632155 
L 287.509123 256.373447 
" style="fill:none;stroke:#d95b59;"/>
    <path clip-path="url(#pc0d4766203)" d="M 216.000002 265.632155 
L 348.131547 230.006934 
" style="fill:none;stroke:#d95b59;"/>
    <path clip-path="url(#pc0d4766203)" d="M 216.000002 265.632155 
L 388.638223 190.54661 
" style="fill:none;stroke:#d95b59;"/>
    <path clip-path="url(#pc0d4766203)" d="M 287.509123 256.373447 
L 348.131547 230.006934 
" style="fill:none;stroke:#d95b59;"/>
    <path clip-path="url(#pc0d4766203)" d="M 287.509123 256.373447 
L 388.638223 190.54661 
" style="fill:none;stroke:#d95b59;"/>
    <path clip-path="url(#pc0d4766203)" d="M 348.131547 230.006934 
L 388.638223 190.54661 
" style="fill:none;stroke:#d95b59;"/>
   </g>
   <g id="PathCollection_1">
    <defs>
     <path d="M 0 21.965883 
C 5.82542 21.965883 11.41303 19.651419 15.532225 15.532225 
C 19.651419 11.41303 21.965883 5.82542 21.965883 0 
C 21.965883 -5.82542 19.651419 -11.41303 15.532225 -15.532225 
C 11.41303 -19.651419 5.82542 -21.965883 0 -21.965883 
C -5.82542 -21.965883 -11.41303 -19.651419 -15.532225 -15.532225 
C -19.651419 -11.41303 -21.965883 -5.82542 -21.965883 0 
C -21.965883 5.82542 -19.651419 11.41303 -15.532225 15.532225 
C -11.41303 19.651419 -5.82542 21.965883 0 21.965883 
z
" id="C0_0_aac56ef4d9"/>
    </defs>
    <g clip-path="url(#pc0d4766203)">
     <use style="fill:#ffa500;stroke:#000000;" x="402.86226" xlink:href="#C0_0_aac56ef4d9" y="144"/>
    </g>
    <g clip-path="url(#pc0d4766203)">
     <use style="fill:#ffa500;stroke:#000000;" x="388.638212" xlink:href="#C0_0_aac56ef4d9" y="97.453387"/>
    </g>
    <g clip-path="url(#pc0d4766203)">
     <use style="fill:#ffa500;stroke:#000000;" x="348.131569" xlink:href="#C0_0_aac56ef4d9" y="57.99308"/>
    </g>
    <g clip-path="url(#pc0d4766203)">
     <use style="fill:#ffa500;stroke:#000000;" x="287.50909" xlink:href="#C0_0_aac56ef4d9" y="31.626545"/>
    </g>
    <g clip-path="url(#pc0d4766203)">
     <use style="fill:#008000;stroke:#000000;" x="215.999992" xlink:href="#C0_0_aac56ef4d9" y="22.367845"/>
    </g>
    <g clip-path="url(#pc0d4766203)">
     <use style="fill:#008000;stroke:#000000;" x="144.490916" xlink:href="#C0_0_aac56ef4d9" y="31.626538"/>
    </g>
    <g clip-path="url(#pc0d4766203)">
     <use style="fill:#008000;stroke:#000000;" x="83.868431" xlink:href="#C0_0_aac56ef4d9" y="57.99308"/>
    </g>
    <g clip-path="url(#pc0d4766203)">
     <use style="fill:#008000;stroke:#000000;" x="43.361788" xlink:href="#C0_0_aac56ef4d9" y="97.453383"/>
    </g>
    <g clip-path="url(#pc0d4766203)">
     <use style="fill:#008000;stroke:#000000;" x="29.13774" xlink:href="#C0_0_aac56ef4d9" y="144.000011"/>
    </g>
    <g clip-path="url(#pc0d4766203)">
     <use style="fill:#008000;stroke:#000000;" x="43.361788" xlink:href="#C0_0_aac56ef4d9" y="190.54661"/>
    </g>
    <g clip-path="url(#pc0d4766203)">
     <use style="fill:#008000;stroke:#000000;" x="83.86842" xlink:href="#C0_0_aac56ef4d9" y="230.006913"/>
    </g>
    <g clip-path="url(#pc0d4766203)">
     <use style="fill:#008000;stroke:#000000;" x="144.490882" xlink:href="#C0_0_aac56ef4d9" y="256.373455"/>
    </g>
    <g clip-path="url(#pc0d4766203)">
     <use style="fill:#ffa500;stroke:#000000;" x="216.000002" xlink:href="#C0_0_aac56ef4d9" y="265.632155"/>
    </g>
    <g clip-path="url(#pc0d4766203)">
     <use style="fill:#ffa500;stroke:#000000;" x="287.509123" xlink:href="#C0_0_aac56ef4d9" y="256.373447"/>
    </g>
    <g clip-path="url(#pc0d4766203)">
     <use style="fill:#ffa500;stroke:#000000;" x="348.131547" xlink:href="#C0_0_aac56ef4d9" y="230.006934"/>
    </g>
    <g clip-path="url(#pc0d4766203)">
     <use style="fill:#ffa500;stroke:#000000;" x="388.638223" xlink:href="#C0_0_aac56ef4d9" y="190.54661"/>
    </g>
   </g>
   <g id="text_1">
    <g clip-path="url(#pc0d4766203)">
     <!-- YIXZ -->
     <defs>
      <path d="M -0.203125 72.90625 
L 10.40625 72.90625 
L 30.609375 42.921875 
L 50.6875 72.90625 
L 61.28125 72.90625 
L 35.5 34.71875 
L 35.5 0 
L 25.59375 0 
L 25.59375 34.71875 
z
" id="DejaVuSans-59"/>
      <path d="M 9.8125 72.90625 
L 19.671875 72.90625 
L 19.671875 0 
L 9.8125 0 
z
" id="DejaVuSans-49"/>
      <path d="M 6.296875 72.90625 
L 16.890625 72.90625 
L 35.015625 45.796875 
L 53.21875 72.90625 
L 63.8125 72.90625 
L 40.375 37.890625 
L 65.375 0 
L 54.78125 0 
L 34.28125 31 
L 13.625 0 
L 2.984375 0 
L 29 38.921875 
z
" id="DejaVuSans-58"/>
      <path d="M 5.609375 72.90625 
L 62.890625 72.90625 
L 62.890625 65.375 
L 16.796875 8.296875 
L 64.015625 8.296875 
L 64.015625 0 
L 4.5 0 
L 4.5 7.515625 
L 50.59375 64.59375 
L 5.609375 64.59375 
z
" id="DejaVuSans-5a"/>
     </defs>
     <g transform="translate(387.500737 140.166633)scale(0.135 -0.135)">
      <use xlink:href="#DejaVuSans-59"/>
      <use x="61.083984" xlink:href="#DejaVuSans-49"/>
      <use x="90.576172" xlink:href="#DejaVuSans-58"/>
      <use x="159.082031" xlink:href="#DejaVuSans-5a"/>
     </g>
    </g>
    <g clip-path="url(#pc0d4766203)">
     <!-- XZXZ -->
     <g transform="translate(384.36726 155.28368)scale(0.135 -0.135)">
      <use xlink:href="#DejaVuSans-58"/>
      <use x="68.505859" xlink:href="#DejaVuSans-5a"/>
      <use x="137.011719" xlink:href="#DejaVuSans-58"/>
      <use x="205.517578" xlink:href="#DejaVuSans-5a"/>
     </g>
    </g>
   </g>
   <g id="text_2">
    <g clip-path="url(#pc0d4766203)">
     <!-- YIXZ -->
     <g transform="translate(373.276689 93.62002)scale(0.135 -0.135)">
      <use xlink:href="#DejaVuSans-59"/>
      <use x="61.083984" xlink:href="#DejaVuSans-49"/>
      <use x="90.576172" xlink:href="#DejaVuSans-58"/>
      <use x="159.082031" xlink:href="#DejaVuSans-5a"/>
     </g>
    </g>
    <g clip-path="url(#pc0d4766203)">
     <!-- YIYI -->
     <g transform="translate(376.410165 108.737066)scale(0.135 -0.135)">
      <use xlink:href="#DejaVuSans-59"/>
      <use x="61.083984" xlink:href="#DejaVuSans-49"/>
      <use x="90.576172" xlink:href="#DejaVuSans-59"/>
      <use x="151.660156" xlink:href="#DejaVuSans-49"/>
     </g>
    </g>
   </g>
   <g id="text_3">
    <g clip-path="url(#pc0d4766203)">
     <!-- YIYI -->
     <g transform="translate(335.903522 54.159713)scale(0.135 -0.135)">
      <use xlink:href="#DejaVuSans-59"/>
      <use x="61.083984" xlink:href="#DejaVuSans-49"/>
      <use x="90.576172" xlink:href="#DejaVuSans-59"/>
      <use x="151.660156" xlink:href="#DejaVuSans-49"/>
     </g>
    </g>
    <g clip-path="url(#pc0d4766203)">
     <!-- XZYI -->
     <g transform="translate(332.770046 69.27676)scale(0.135 -0.135)">
      <use xlink:href="#DejaVuSans-58"/>
      <use x="68.505859" xlink:href="#DejaVuSans-5a"/>
      <use x="137.011719" xlink:href="#DejaVuSans-59"/>
      <use x="198.095703" xlink:href="#DejaVuSans-49"/>
     </g>
    </g>
   </g>
   <g id="text_4">
    <g clip-path="url(#pc0d4766203)">
     <!-- YIYI -->
     <g transform="translate(275.281043 27.793178)scale(0.135 -0.135)">
      <use xlink:href="#DejaVuSans-59"/>
      <use x="61.083984" xlink:href="#DejaVuSans-49"/>
      <use x="90.576172" xlink:href="#DejaVuSans-59"/>
      <use x="151.660156" xlink:href="#DejaVuSans-49"/>
     </g>
    </g>
    <g clip-path="url(#pc0d4766203)">
     <!-- YIXZ -->
     <g transform="translate(272.147567 42.910225)scale(0.135 -0.135)">
      <use xlink:href="#DejaVuSans-59"/>
      <use x="61.083984" xlink:href="#DejaVuSans-49"/>
      <use x="90.576172" xlink:href="#DejaVuSans-58"/>
      <use x="159.082031" xlink:href="#DejaVuSans-5a"/>
     </g>
    </g>
   </g>
   <g id="text_5">
    <g clip-path="url(#pc0d4766203)">
     <!-- XZXZ -->
     <g transform="translate(197.504992 18.534478)scale(0.135 -0.135)">
      <use xlink:href="#DejaVuSans-58"/>
      <use x="68.505859" xlink:href="#DejaVuSans-5a"/>
      <use x="137.011719" xlink:href="#DejaVuSans-58"/>
      <use x="205.517578" xlink:href="#DejaVuSans-5a"/>
     </g>
    </g>
    <g clip-path="url(#pc0d4766203)">
     <!-- XZXZ -->
     <g transform="translate(197.504992 33.651525)scale(0.135 -0.135)">
      <use xlink:href="#DejaVuSans-58"/>
      <use x="68.505859" xlink:href="#DejaVuSans-5a"/>
      <use x="137.011719" xlink:href="#DejaVuSans-58"/>
      <use x="205.517578" xlink:href="#DejaVuSans-5a"/>
     </g>
    </g>
   </g>
   <g id="text_6">
    <g clip-path="url(#pc0d4766203)">
     <!-- XZXZ -->
     <g transform="translate(125.995916 27.793171)scale(0.135 -0.135)">
      <use xlink:href="#DejaVuSans-58"/>
      <use x="68.505859" xlink:href="#DejaVuSans-5a"/>
      <use x="137.011719" xlink:href="#DejaVuSans-58"/>
      <use x="205.517578" xlink:href="#DejaVuSans-5a"/>
     </g>
    </g>
    <g clip-path="url(#pc0d4766203)">
     <!-- YIYI -->
     <g transform="translate(132.262869 42.910218)scale(0.135 -0.135)">
      <use xlink:href="#DejaVuSans-59"/>
      <use x="61.083984" xlink:href="#DejaVuSans-49"/>
      <use x="90.576172" xlink:href="#DejaVuSans-59"/>
      <use x="151.660156" xlink:href="#DejaVuSans-49"/>
     </g>
    </g>
   </g>
   <g id="text_7">
    <g clip-path="url(#pc0d4766203)">
     <!-- XZYI -->
     <g transform="translate(68.506907 54.159713)scale(0.135 -0.135)">
      <use xlink:href="#DejaVuSans-58"/>
      <use x="68.505859" xlink:href="#DejaVuSans-5a"/>
      <use x="137.011719" xlink:href="#DejaVuSans-59"/>
      <use x="198.095703" xlink:href="#DejaVuSans-49"/>
     </g>
    </g>
    <g clip-path="url(#pc0d4766203)">
     <!-- XZYI -->
     <g transform="translate(68.506907 69.27676)scale(0.135 -0.135)">
      <use xlink:href="#DejaVuSans-58"/>
      <use x="68.505859" xlink:href="#DejaVuSans-5a"/>
      <use x="137.011719" xlink:href="#DejaVuSans-59"/>
      <use x="198.095703" xlink:href="#DejaVuSans-49"/>
     </g>
    </g>
   </g>
   <g id="text_8">
    <g clip-path="url(#pc0d4766203)">
     <!-- XZYI -->
     <g transform="translate(28.000264 93.620016)scale(0.135 -0.135)">
      <use xlink:href="#DejaVuSans-58"/>
      <use x="68.505859" xlink:href="#DejaVuSans-5a"/>
      <use x="137.011719" xlink:href="#DejaVuSans-59"/>
      <use x="198.095703" xlink:href="#DejaVuSans-49"/>
     </g>
    </g>
    <g clip-path="url(#pc0d4766203)">
     <!-- YIXZ -->
     <g transform="translate(28.000264 108.737063)scale(0.135 -0.135)">
      <use xlink:href="#DejaVuSans-59"/>
      <use x="61.083984" xlink:href="#DejaVuSans-49"/>
      <use x="90.576172" xlink:href="#DejaVuSans-58"/>
      <use x="159.082031" xlink:href="#DejaVuSans-5a"/>
     </g>
    </g>
   </g>
   <g id="text_9">
    <g clip-path="url(#pc0d4766203)">
     <!-- YIXZ -->
     <g transform="translate(13.776216 140.166643)scale(0.135 -0.135)">
      <use xlink:href="#DejaVuSans-59"/>
      <use x="61.083984" xlink:href="#DejaVuSans-49"/>
      <use x="90.576172" xlink:href="#DejaVuSans-58"/>
      <use x="159.082031" xlink:href="#DejaVuSans-5a"/>
     </g>
    </g>
    <g clip-path="url(#pc0d4766203)">
     <!-- XZYI -->
     <g transform="translate(13.776216 155.28369)scale(0.135 -0.135)">
      <use xlink:href="#DejaVuSans-58"/>
      <use x="68.505859" xlink:href="#DejaVuSans-5a"/>
      <use x="137.011719" xlink:href="#DejaVuSans-59"/>
      <use x="198.095703" xlink:href="#DejaVuSans-49"/>
     </g>
    </g>
   </g>
   <g id="text_10">
    <g clip-path="url(#pc0d4766203)">
     <!-- YIXZ -->
     <g transform="translate(28.000264 186.713242)scale(0.135 -0.135)">
      <use xlink:href="#DejaVuSans-59"/>
      <use x="61.083984" xlink:href="#DejaVuSans-49"/>
      <use x="90.576172" xlink:href="#DejaVuSans-58"/>
      <use x="159.082031" xlink:href="#DejaVuSans-5a"/>
     </g>
    </g>
    <g clip-path="url(#pc0d4766203)">
     <!-- YIXZ -->
     <g transform="translate(28.000264 201.830289)scale(0.135 -0.135)">
      <use xlink:href="#DejaVuSans-59"/>
      <use x="61.083984" xlink:href="#DejaVuSans-49"/>
      <use x="90.576172" xlink:href="#DejaVuSans-58"/>
      <use x="159.082031" xlink:href="#DejaVuSans-5a"/>
     </g>
    </g>
   </g>
   <g id="text_11">
    <g clip-path="url(#pc0d4766203)">
     <!-- YIYI -->
     <g transform="translate(71.640373 226.173545)scale(0.135 -0.135)">
      <use xlink:href="#DejaVuSans-59"/>
      <use x="61.083984" xlink:href="#DejaVuSans-49"/>
      <use x="90.576172" xlink:href="#DejaVuSans-59"/>
      <use x="151.660156" xlink:href="#DejaVuSans-49"/>
     </g>
    </g>
    <g clip-path="url(#pc0d4766203)">
     <!-- XZXZ -->
     <g transform="translate(65.37342 241.290592)scale(0.135 -0.135)">
      <use xlink:href="#DejaVuSans-58"/>
      <use x="68.505859" xlink:href="#DejaVuSans-5a"/>
      <use x="137.011719" xlink:href="#DejaVuSans-58"/>
      <use x="205.517578" xlink:href="#DejaVuSans-5a"/>
     </g>
    </g>
   </g>
   <g id="text_12">
    <g clip-path="url(#pc0d4766203)">
     <!-- YIYI -->
     <g transform="translate(132.262835 252.540088)scale(0.135 -0.135)">
      <use xlink:href="#DejaVuSans-59"/>
      <use x="61.083984" xlink:href="#DejaVuSans-49"/>
      <use x="90.576172" xlink:href="#DejaVuSans-59"/>
      <use x="151.660156" xlink:href="#DejaVuSans-49"/>
     </g>
    </g>
    <g clip-path="url(#pc0d4766203)">
     <!-- YIYI -->
     <g transform="translate(132.262835 267.657134)scale(0.135 -0.135)">
      <use xlink:href="#DejaVuSans-59"/>
      <use x="61.083984" xlink:href="#DejaVuSans-49"/>
      <use x="90.576172" xlink:href="#DejaVuSans-59"/>
      <use x="151.660156" xlink:href="#DejaVuSans-49"/>
     </g>
    </g>
   </g>
   <g id="text_13">
    <g clip-path="url(#pc0d4766203)">
     <!-- XZXZ -->
     <g transform="translate(197.505002 261.798787)scale(0.135 -0.135)">
      <use xlink:href="#DejaVuSans-58"/>
      <use x="68.505859" xlink:href="#DejaVuSans-5a"/>
      <use x="137.011719" xlink:href="#DejaVuSans-58"/>
      <use x="205.517578" xlink:href="#DejaVuSans-5a"/>
     </g>
    </g>
    <g clip-path="url(#pc0d4766203)">
     <!-- XZYI -->
     <g transform="translate(200.638479 276.915834)scale(0.135 -0.135)">
      <use xlink:href="#DejaVuSans-58"/>
      <use x="68.505859" xlink:href="#DejaVuSans-5a"/>
      <use x="137.011719" xlink:href="#DejaVuSans-59"/>
      <use x="198.095703" xlink:href="#DejaVuSans-49"/>
     </g>
    </g>
   </g>
   <g id="text_14">
    <g clip-path="url(#pc0d4766203)">
     <!-- XZXZ -->
     <g transform="translate(269.014123 252.54008)scale(0.135 -0.135)">
      <use xlink:href="#DejaVuSans-58"/>
      <use x="68.505859" xlink:href="#DejaVuSans-5a"/>
      <use x="137.011719" xlink:href="#DejaVuSans-58"/>
      <use x="205.517578" xlink:href="#DejaVuSans-5a"/>
     </g>
    </g>
    <g clip-path="url(#pc0d4766203)">
     <!-- YIXZ -->
     <g transform="translate(272.1476 267.657127)scale(0.135 -0.135)">
      <use xlink:href="#DejaVuSans-59"/>
      <use x="61.083984" xlink:href="#DejaVuSans-49"/>
      <use x="90.576172" xlink:href="#DejaVuSans-58"/>
      <use x="159.082031" xlink:href="#DejaVuSans-5a"/>
     </g>
    </g>
   </g>
   <g id="text_15">
    <g clip-path="url(#pc0d4766203)">
     <!-- XZYI -->
     <g transform="translate(332.770023 226.173567)scale(0.135 -0.135)">
      <use xlink:href="#DejaVuSans-58"/>
      <use x="68.505859" xlink:href="#DejaVuSans-5a"/>
      <use x="137.011719" xlink:href="#DejaVuSans-59"/>
      <use x="198.095703" xlink:href="#DejaVuSans-49"/>
     </g>
    </g>
    <g clip-path="url(#pc0d4766203)">
     <!-- XZXZ -->
     <g transform="translate(329.636547 241.290614)scale(0.135 -0.135)">
      <use xlink:href="#DejaVuSans-58"/>
      <use x="68.505859" xlink:href="#DejaVuSans-5a"/>
      <use x="137.011719" xlink:href="#DejaVuSans-58"/>
      <use x="205.517578" xlink:href="#DejaVuSans-5a"/>
     </g>
    </g>
   </g>
   <g id="text_16">
    <g clip-path="url(#pc0d4766203)">
     <!-- XZYI -->
     <g transform="translate(373.2767 186.713242)scale(0.135 -0.135)">
      <use xlink:href="#DejaVuSans-58"/>
      <use x="68.505859" xlink:href="#DejaVuSans-5a"/>
      <use x="137.011719" xlink:href="#DejaVuSans-59"/>
      <use x="198.095703" xlink:href="#DejaVuSans-49"/>
     </g>
    </g>
    <g clip-path="url(#pc0d4766203)">
     <!-- YIYI -->
     <g transform="translate(376.410177 201.830289)scale(0.135 -0.135)">
      <use xlink:href="#DejaVuSans-59"/>
      <use x="61.083984" xlink:href="#DejaVuSans-49"/>
      <use x="90.576172" xlink:href="#DejaVuSans-59"/>
      <use x="151.660156" xlink:href="#DejaVuSans-49"/>
     </g>
    </g>
   </g>
  </g>
 </g>
 <defs>
  <clipPath id="pc0d4766203">
   <rect height="288" width="432" x="0" y="0"/>
  </clipPath>
 </defs>
</svg>
